<svg width="142" height="44" viewBox="0 0 142 44" fill="none" xmlns="http://www.w3.org/2000/svg">
<g clip-path="url(#clip0_305_588)">
<path fill-rule="evenodd" clip-rule="evenodd" d="M44.0117 20.3888C44.8853 21.98 45.8803 23.5123 46.9931 24.9822C56.7486 15.8127 55.5456 29.4266 53.7602 30.8722C52.4602 31.9435 49.9884 32.2139 48.6433 31.8429C50.0057 32.9557 51.1636 33.5867 52.117 33.7358C55.5387 34.5088 57.4696 32.5917 57.9134 27.9879C58.8286 19.4007 51.129 13.2993 44.0117 20.3888Z" fill="white"/>
<path fill-rule="evenodd" clip-rule="evenodd" d="M19.216 14.5434C15.1911 11.302 10.927 11.614 6.42371 15.4829C0.967041 20.4439 -1.01594 25.9179 0.485162 31.9049C3.02976 33.777 5.53968 33.1356 8.05308 30.3102C2.57561 35.1082 2.00013 26.5765 6.64558 20.5548C8.9371 17.5803 11.9636 17.5422 14.4562 20.5063C16.0613 17.7814 17.649 15.7915 19.2195 14.5434" fill="white"/>
<path fill-rule="evenodd" clip-rule="evenodd" d="M11.9727 7.73023C11.9727 9.33187 13.2692 10.6284 14.8709 10.6284C16.4725 10.6284 17.7691 9.33187 17.7691 7.73023C17.7691 6.1286 16.4725 4.83203 14.8709 4.83203C13.2692 4.83203 11.9727 6.1286 11.9727 7.73023Z" fill="white"/>
<path fill-rule="evenodd" clip-rule="evenodd" d="M51.3142 11.0391C49.7749 11.0391 48.5234 12.2871 48.5234 13.8298C48.5234 15.3725 49.7715 16.6205 51.3142 16.6205C52.8569 16.6205 54.1049 15.3725 54.1049 13.8298C54.1049 12.2871 52.8569 11.0391 51.3142 11.0391Z" fill="white"/>
<path fill-rule="evenodd" clip-rule="evenodd" d="M43.907 28.0426C42.7352 26.8084 41.4733 25.3489 40.1213 23.6641C36.1137 29.1277 33.0457 31.4885 30.9102 30.7432C33.0803 32.2373 35.4031 32.8475 37.8783 32.5805C39.7642 31.596 41.7715 30.0845 43.907 28.0426Z" fill="white"/>
<path fill-rule="evenodd" clip-rule="evenodd" d="M30.913 30.7422C28.4967 29.0816 26.2676 26.329 24.2257 22.4844C23.411 23.4481 21.8475 25.1919 19.5352 27.7157C25.498 34.2297 31.6133 35.8522 37.8777 32.5761C35.4025 32.843 33.0798 32.2329 30.9096 30.7387" fill="white"/>
<path d="M63.6797 39.6211H64.9104C65.0699 39.6211 65.2328 39.635 65.3992 39.6592C65.5621 39.687 65.7112 39.739 65.8429 39.8222C65.9747 39.9054 66.0787 40.0198 66.1619 40.1654C66.2451 40.311 66.2867 40.5051 66.2867 40.7478C66.2867 40.9662 66.2243 41.1534 66.0925 41.3163C65.9643 41.4758 65.7736 41.5833 65.5205 41.6353V41.6491C65.6592 41.6595 65.7909 41.6942 65.9053 41.7497C66.0232 41.8051 66.1237 41.8779 66.2069 41.9681C66.2901 42.0582 66.356 42.1657 66.4046 42.2905C66.4496 42.4153 66.4739 42.5505 66.4739 42.6996C66.4739 42.9457 66.4254 43.1433 66.3317 43.2993C66.2381 43.4553 66.1203 43.5767 65.9781 43.6633C65.836 43.75 65.68 43.8124 65.5136 43.8436C65.3472 43.8748 65.1912 43.8921 65.0456 43.8921H63.6832V39.6211H63.6797ZM64.0784 41.4654H64.9035C65.108 41.4654 65.2744 41.4411 65.4027 41.3891C65.5309 41.3371 65.6315 41.2782 65.7043 41.2054C65.7771 41.1326 65.8256 41.0563 65.8499 40.9731C65.8741 40.8899 65.888 40.8137 65.888 40.7478C65.888 40.5987 65.8637 40.4739 65.8117 40.3768C65.7597 40.2798 65.6939 40.2 65.6107 40.1411C65.5275 40.0822 65.4269 40.0406 65.316 40.0163C65.2051 39.992 65.0837 39.9816 64.9589 39.9816H64.0784V41.4654ZM64.0784 43.5281H64.9901C65.2224 43.5281 65.4096 43.5004 65.5552 43.4449C65.6973 43.3895 65.8083 43.3201 65.8845 43.2334C65.9608 43.1502 66.0128 43.0601 66.0405 42.9665C66.0648 42.8729 66.0787 42.7862 66.0787 42.71C66.0787 42.554 66.0475 42.4188 65.9885 42.3044C65.9296 42.1934 65.8499 42.0998 65.7528 42.0305C65.6557 41.9611 65.5483 41.9091 65.4235 41.8779C65.3021 41.8467 65.1773 41.8294 65.0525 41.8294H64.0818V43.5281H64.0784Z" fill="white"/>
<path d="M71.871 42.2558C71.871 42.4846 71.8432 42.703 71.7912 42.9145C71.7392 43.1225 71.6526 43.3097 71.5277 43.4692C71.4064 43.6287 71.2435 43.7604 71.0459 43.854C70.8483 43.9511 70.6021 43.9996 70.3144 43.9996C70.0266 43.9996 69.7805 43.9511 69.5829 43.854C69.3853 43.7569 69.2224 43.6287 69.101 43.4692C68.9762 43.3097 68.8896 43.1225 68.8376 42.9145C68.7856 42.7065 68.7578 42.4846 68.7578 42.2558V39.6211H69.1565V42.1553C69.1565 42.3078 69.1704 42.4708 69.1981 42.6441C69.2258 42.8174 69.2813 42.9769 69.3645 43.126C69.4477 43.275 69.5621 43.3964 69.7146 43.4935C69.8637 43.5905 70.0648 43.6391 70.3144 43.6391C70.564 43.6391 70.7651 43.5905 70.9141 43.4935C71.0667 43.3964 71.1811 43.275 71.2643 43.126C71.3475 42.9769 71.4029 42.8174 71.4307 42.6441C71.4584 42.4708 71.4723 42.3078 71.4723 42.1553V39.6211H71.871V42.2558Z" fill="white"/>
<path d="M74.4356 43.0983C74.5396 43.2786 74.6748 43.4138 74.8412 43.5039C75.0076 43.594 75.1983 43.6356 75.4097 43.6356C75.5415 43.6356 75.6663 43.6148 75.7842 43.5767C75.902 43.5351 76.0026 43.4796 76.0892 43.4068C76.1759 43.334 76.2452 43.2474 76.2938 43.1434C76.3458 43.0394 76.37 42.925 76.37 42.7967C76.37 42.6476 76.3388 42.5263 76.2764 42.4292C76.214 42.3321 76.1308 42.2524 76.0268 42.19C75.9228 42.1276 75.805 42.0756 75.6732 42.0305C75.5415 41.9855 75.4097 41.9404 75.2676 41.8988C75.1289 41.8537 74.9937 41.8052 74.862 41.7497C74.7303 41.6943 74.6124 41.618 74.5084 41.5279C74.4044 41.4377 74.3212 41.3233 74.2588 41.1881C74.1964 41.0529 74.1652 40.883 74.1652 40.682C74.1652 40.4948 74.2033 40.3249 74.2761 40.1793C74.3489 40.0337 74.4529 39.9089 74.5777 39.8118C74.706 39.7147 74.8516 39.6385 75.0145 39.5899C75.1809 39.5379 75.3543 39.5137 75.5345 39.5137C75.7668 39.5137 75.9818 39.5553 76.1828 39.6385C76.3804 39.7217 76.5538 39.8569 76.6994 40.051L76.3562 40.2972C76.2556 40.155 76.1378 40.051 76.0026 39.9817C75.8674 39.9123 75.7079 39.8777 75.5242 39.8777C75.3959 39.8777 75.2745 39.895 75.1567 39.9297C75.0388 39.9643 74.9383 40.0129 74.8516 40.0788C74.7649 40.1446 74.6956 40.2278 74.6436 40.3284C74.5916 40.4289 74.5639 40.5468 74.5639 40.6854C74.5639 40.9004 74.6193 41.0633 74.7268 41.1777C74.8343 41.2921 74.9695 41.3822 75.1324 41.4481C75.2953 41.514 75.4721 41.5729 75.6628 41.6215C75.8535 41.6735 76.0303 41.7393 76.1932 41.8225C76.3562 41.9057 76.4914 42.0236 76.5988 42.1761C76.7063 42.3287 76.7618 42.5367 76.7618 42.8002C76.7618 42.9943 76.7271 43.1642 76.6543 43.3132C76.5815 43.4623 76.4844 43.5871 76.3631 43.6911C76.2418 43.7951 76.0996 43.8714 75.9367 43.9234C75.7772 43.9754 75.6074 44.0031 75.4375 44.0031C75.1567 44.0031 74.8967 43.9546 74.6609 43.854C74.4252 43.757 74.2207 43.5906 74.0508 43.3583L74.4321 43.1052L74.4356 43.0983Z" fill="white"/>
<path d="M79.426 39.6211H79.0273V43.8921H79.426V39.6211Z" fill="white"/>
<path d="M81.9531 39.6211H82.4662L85.0663 43.3583H85.0767V39.6211H85.4753V43.8887H84.9623L82.3622 40.1515H82.3518V43.8887H81.9531V39.6211Z" fill="white"/>
<path d="M88.0039 39.6211H90.6144V39.9816H88.3991V41.5001H90.4757V41.8641H88.3991V43.5281H90.7114V43.8887H88.0039V39.6211Z" fill="white"/>
<path d="M93.0528 43.0983C93.1568 43.2786 93.292 43.4138 93.4584 43.5039C93.6248 43.594 93.8155 43.6356 94.0269 43.6356C94.1587 43.6356 94.2835 43.6148 94.4013 43.5767C94.5192 43.5351 94.6198 43.4796 94.7064 43.4068C94.7931 43.334 94.8624 43.2474 94.911 43.1434C94.963 43.0394 94.9872 42.925 94.9872 42.7967C94.9872 42.6476 94.956 42.5263 94.8936 42.4292C94.8312 42.3321 94.748 42.2524 94.644 42.19C94.54 42.1276 94.4222 42.0756 94.2904 42.0305C94.1587 41.9855 94.0269 41.9404 93.8848 41.8988C93.7461 41.8537 93.6109 41.8052 93.4792 41.7497C93.3475 41.6943 93.2296 41.618 93.1256 41.5279C93.0216 41.4377 92.9384 41.3233 92.876 41.1881C92.8136 41.0529 92.7824 40.883 92.7824 40.682C92.7824 40.4948 92.8205 40.3249 92.8933 40.1793C92.9661 40.0337 93.0701 39.9089 93.1949 39.8118C93.3232 39.7147 93.4688 39.6385 93.6317 39.5899C93.7981 39.5379 93.9715 39.5137 94.1517 39.5137C94.384 39.5137 94.599 39.5553 94.8 39.6385C94.9976 39.7217 95.171 39.8569 95.3166 40.051L94.9734 40.2972C94.8728 40.155 94.755 40.051 94.6198 39.9817C94.4845 39.9123 94.3251 39.8777 94.1413 39.8777C94.0131 39.8777 93.8917 39.895 93.7739 39.9297C93.656 39.9643 93.5555 40.0129 93.4688 40.0788C93.3821 40.1446 93.3128 40.2278 93.2608 40.3284C93.2088 40.4289 93.1811 40.5468 93.1811 40.6854C93.1811 40.9004 93.2365 41.0633 93.344 41.1777C93.4515 41.2921 93.5867 41.3822 93.7496 41.4481C93.9125 41.514 94.0893 41.5729 94.28 41.6215C94.4707 41.6735 94.6475 41.7393 94.8104 41.8225C94.9734 41.9057 95.1086 42.0236 95.216 42.1761C95.3235 42.3287 95.379 42.5367 95.379 42.8002C95.379 42.9943 95.3443 43.1642 95.2715 43.3132C95.1987 43.4623 95.1016 43.5871 94.9803 43.6911C94.859 43.7951 94.7168 43.8714 94.5539 43.9234C94.3944 43.9754 94.2245 44.0031 94.0547 44.0031C93.7739 44.0031 93.5139 43.9546 93.2781 43.854C93.0424 43.757 92.8378 43.5906 92.668 43.3583L93.0493 43.1052L93.0528 43.0983Z" fill="white"/>
<path d="M97.7598 43.0983C97.8638 43.2786 97.999 43.4138 98.1654 43.5039C98.3318 43.594 98.5225 43.6356 98.734 43.6356C98.8657 43.6356 98.9905 43.6148 99.1084 43.5767C99.2262 43.5351 99.3268 43.4796 99.4135 43.4068C99.5001 43.334 99.5695 43.2474 99.618 43.1434C99.67 43.0394 99.6943 42.925 99.6943 42.7967C99.6943 42.6476 99.663 42.5263 99.6006 42.4292C99.5382 42.3321 99.455 42.2524 99.351 42.19C99.247 42.1276 99.1292 42.0756 98.9974 42.0305C98.8657 41.9855 98.734 41.9404 98.5918 41.8988C98.4532 41.8537 98.318 41.8052 98.1862 41.7497C98.0545 41.6943 97.9366 41.618 97.8326 41.5279C97.7286 41.4377 97.6454 41.3233 97.583 41.1881C97.5206 41.0529 97.4894 40.883 97.4894 40.682C97.4894 40.4948 97.5275 40.3249 97.6003 40.1793C97.6731 40.0337 97.7771 39.9089 97.9019 39.8118C98.0302 39.7147 98.1758 39.6385 98.3388 39.5899C98.5052 39.5379 98.6785 39.5137 98.8588 39.5137C99.091 39.5137 99.306 39.5553 99.507 39.6385C99.7047 39.7217 99.878 39.8569 100.024 40.051L99.6804 40.2972C99.5799 40.155 99.462 40.051 99.3268 39.9817C99.1916 39.9123 99.0321 39.8777 98.8484 39.8777C98.7201 39.8777 98.5988 39.895 98.4809 39.9297C98.363 39.9643 98.2625 40.0129 98.1758 40.0788C98.0891 40.1446 98.0198 40.2278 97.9678 40.3284C97.9158 40.4289 97.8881 40.5468 97.8881 40.6854C97.8881 40.9004 97.9435 41.0633 98.051 41.1777C98.1585 41.2921 98.2937 41.3822 98.4566 41.4481C98.6196 41.514 98.7964 41.5729 98.987 41.6215C99.1777 41.6735 99.3545 41.7393 99.5174 41.8225C99.6804 41.9057 99.8156 42.0236 99.9231 42.1761C100.031 42.3287 100.086 42.5367 100.086 42.8002C100.086 42.9943 100.051 43.1642 99.9785 43.3132C99.9057 43.4623 99.8087 43.5871 99.6873 43.6911C99.566 43.7951 99.4239 43.8714 99.2609 43.9234C99.1014 43.9754 98.9316 44.0031 98.7617 44.0031C98.4809 44.0031 98.2209 43.9546 97.9852 43.854C97.7494 43.757 97.5449 43.5906 97.375 43.3583L97.7563 43.1052L97.7598 43.0983Z" fill="white"/>
<path d="M105.393 43.0983C105.497 43.2786 105.632 43.4138 105.798 43.5039C105.965 43.594 106.155 43.6356 106.367 43.6356C106.499 43.6356 106.623 43.6148 106.741 43.5767C106.859 43.5351 106.96 43.4796 107.046 43.4068C107.133 43.334 107.202 43.2474 107.251 43.1434C107.303 43.0394 107.327 42.925 107.327 42.7967C107.327 42.6476 107.296 42.5263 107.233 42.4292C107.171 42.3321 107.088 42.2524 106.984 42.19C106.88 42.1276 106.762 42.0756 106.63 42.0305C106.499 41.9855 106.367 41.9404 106.225 41.8988C106.086 41.8537 105.951 41.8052 105.819 41.7497C105.687 41.6943 105.569 41.618 105.465 41.5279C105.361 41.4377 105.278 41.3233 105.216 41.1881C105.153 41.0529 105.122 40.883 105.122 40.682C105.122 40.4948 105.16 40.3249 105.233 40.1793C105.306 40.0337 105.41 39.9089 105.535 39.8118C105.663 39.7147 105.809 39.6385 105.972 39.5899C106.138 39.5379 106.311 39.5137 106.492 39.5137C106.724 39.5137 106.939 39.5553 107.14 39.6385C107.337 39.7217 107.511 39.8569 107.656 40.051L107.313 40.2972C107.213 40.155 107.095 40.051 106.96 39.9817C106.824 39.9123 106.665 39.8777 106.481 39.8777C106.353 39.8777 106.232 39.895 106.114 39.9297C105.996 39.9643 105.895 40.0129 105.809 40.0788C105.722 40.1446 105.653 40.2278 105.601 40.3284C105.549 40.4289 105.521 40.5468 105.521 40.6854C105.521 40.9004 105.576 41.0633 105.684 41.1777C105.791 41.2921 105.926 41.3822 106.089 41.4481C106.252 41.514 106.429 41.5729 106.62 41.6215C106.811 41.6735 106.987 41.7393 107.15 41.8225C107.313 41.9057 107.448 42.0236 107.556 42.1761C107.663 42.3287 107.719 42.5367 107.719 42.8002C107.719 42.9943 107.684 43.1642 107.611 43.3132C107.539 43.4623 107.441 43.5871 107.32 43.6911C107.199 43.7951 107.057 43.8714 106.894 43.9234C106.734 43.9754 106.564 44.0031 106.395 44.0031C106.114 44.0031 105.854 43.9546 105.618 43.854C105.382 43.757 105.178 43.5906 105.008 43.3583L105.389 43.1052L105.393 43.0983Z" fill="white"/>
<path d="M109.988 39.6211H112.599V39.9816H110.387V41.5001H112.46V41.8641H110.387V43.5281H112.696V43.8887H109.988V39.6211Z" fill="white"/>
<path d="M114.921 39.6207H116.041C116.097 39.6207 116.173 39.6207 116.27 39.6276C116.367 39.6311 116.471 39.6449 116.582 39.6623C116.696 39.6831 116.811 39.7143 116.925 39.7593C117.043 39.8044 117.147 39.8668 117.241 39.9535C117.334 40.0367 117.411 40.1441 117.47 40.2724C117.528 40.4007 117.56 40.5567 117.56 40.7439C117.56 40.9484 117.525 41.1183 117.456 41.25C117.386 41.3818 117.296 41.4892 117.189 41.5724C117.081 41.6556 116.963 41.7146 116.835 41.7562C116.707 41.7978 116.585 41.8255 116.468 41.8394L117.709 43.8882H117.258L116.059 41.8602H115.317V43.8882H114.918V39.6172L114.921 39.6207ZM115.317 41.4996H116.163C116.371 41.4996 116.54 41.4754 116.672 41.4199C116.804 41.3644 116.904 41.302 116.977 41.2258C117.05 41.1495 117.099 41.0663 117.126 40.9796C117.154 40.8895 117.164 40.8098 117.164 40.7369C117.164 40.6641 117.151 40.5844 117.126 40.4943C117.099 40.4041 117.05 40.3244 116.977 40.2481C116.904 40.1719 116.804 40.106 116.672 40.054C116.54 40.002 116.371 39.9743 116.163 39.9743H115.317V41.4927V41.4996Z" fill="white"/>
<path d="M119.289 39.6211H119.719L121.092 43.3652L122.478 39.6211H122.901L121.279 43.8887H120.88L119.289 39.6211Z" fill="white"/>
<path d="M125.223 39.6211H124.824V43.8921H125.223V39.6211Z" fill="white"/>
<path d="M131.266 43.2192C131.061 43.4965 130.822 43.6941 130.555 43.8155C130.285 43.9368 129.993 43.9957 129.681 43.9957C129.369 43.9957 129.057 43.9403 128.787 43.8293C128.517 43.7184 128.284 43.5624 128.09 43.3648C127.896 43.1672 127.747 42.928 127.64 42.6541C127.532 42.3802 127.477 42.0786 127.477 41.7528C127.477 41.4269 127.532 41.1287 127.64 40.8549C127.747 40.581 127.9 40.3453 128.09 40.1476C128.284 39.95 128.517 39.794 128.787 39.6796C129.057 39.5687 129.356 39.5098 129.681 39.5098C129.969 39.5098 130.24 39.5618 130.493 39.6623C130.742 39.7663 130.964 39.9362 131.151 40.1788L130.825 40.4493C130.694 40.2482 130.524 40.1026 130.316 40.009C130.108 39.9154 129.896 39.8703 129.681 39.8703C129.404 39.8703 129.154 39.9188 128.929 40.0159C128.707 40.113 128.517 40.2447 128.361 40.4146C128.205 40.5845 128.083 40.7821 128 41.0109C127.917 41.2397 127.875 41.4893 127.875 41.7528C127.875 42.0162 127.917 42.2658 128 42.4946C128.083 42.7234 128.205 42.9245 128.361 43.0909C128.517 43.2608 128.707 43.3925 128.929 43.4896C129.151 43.5867 129.401 43.6352 129.681 43.6352C129.789 43.6352 129.903 43.6213 130.018 43.5971C130.136 43.5728 130.246 43.5312 130.357 43.4757C130.468 43.4203 130.572 43.3544 130.673 43.2712C130.773 43.188 130.86 43.0909 130.94 42.973L131.266 43.2192Z" fill="white"/>
<path d="M133.352 39.6211H135.962V39.9816H133.747V41.5001H135.823V41.8641H133.747V43.5281H136.059V43.8887H133.352V39.6211Z" fill="white"/>
<path d="M138.397 43.0983C138.501 43.2786 138.636 43.4138 138.802 43.5039C138.969 43.594 139.159 43.6356 139.371 43.6356C139.502 43.6356 139.627 43.6148 139.745 43.5767C139.863 43.5351 139.964 43.4796 140.05 43.4068C140.137 43.334 140.206 43.2474 140.255 43.1434C140.307 43.0394 140.331 42.925 140.331 42.7967C140.331 42.6476 140.3 42.5263 140.237 42.4292C140.175 42.3321 140.092 42.2524 139.988 42.19C139.884 42.1276 139.766 42.0756 139.634 42.0305C139.502 41.9855 139.371 41.9404 139.229 41.8988C139.09 41.8537 138.955 41.8052 138.823 41.7497C138.691 41.6943 138.573 41.618 138.469 41.5279C138.365 41.4377 138.282 41.3233 138.22 41.1881C138.157 41.0529 138.126 40.883 138.126 40.682C138.126 40.4948 138.164 40.3249 138.237 40.1793C138.31 40.0337 138.414 39.9089 138.539 39.8118C138.667 39.7147 138.813 39.6385 138.975 39.5899C139.142 39.5379 139.315 39.5137 139.495 39.5137C139.728 39.5137 139.943 39.5553 140.144 39.6385C140.341 39.7217 140.515 39.8569 140.66 40.051L140.317 40.2972C140.217 40.155 140.099 40.051 139.964 39.9817C139.828 39.9123 139.669 39.8777 139.485 39.8777C139.357 39.8777 139.235 39.895 139.118 39.9297C139 39.9643 138.899 40.0129 138.813 40.0788C138.726 40.1446 138.657 40.2278 138.605 40.3284C138.553 40.4289 138.525 40.5468 138.525 40.6854C138.525 40.9004 138.58 41.0633 138.688 41.1777C138.795 41.2921 138.93 41.3822 139.093 41.4481C139.256 41.514 139.433 41.5729 139.624 41.6215C139.814 41.6735 139.991 41.7393 140.154 41.8225C140.317 41.9057 140.452 42.0236 140.56 42.1761C140.667 42.3287 140.723 42.5367 140.723 42.8002C140.723 42.9943 140.688 43.1642 140.615 43.3132C140.542 43.4623 140.445 43.5871 140.324 43.6911C140.203 43.7951 140.061 43.8714 139.898 43.9234C139.738 43.9754 139.568 44.0031 139.398 44.0031C139.118 44.0031 138.858 43.9546 138.622 43.854C138.386 43.757 138.182 43.5906 138.012 43.3583L138.393 43.1052L138.397 43.0983Z" fill="white"/>
<path fill-rule="evenodd" clip-rule="evenodd" d="M26.7134 4.03876C26.7134 1.80618 28.523 0 30.7521 0C32.9813 0 34.7909 1.80964 34.7909 4.03876C34.7909 6.26788 32.9813 8.07753 30.7521 8.07753C28.523 8.07753 26.7134 6.26788 26.7134 4.03876ZM41.7487 18.0791C36.9195 10.3136 31.7644 7.59565 26.287 9.92531C21.8807 12.2168 17.4571 16.9316 13.0128 24.0662C11.061 27.1239 9.40735 29.1242 8.05185 30.3098C5.53846 33.1352 3.02506 33.78 0.480469 31.9045C2.58825 35.6105 6.08274 36.4598 10.9674 34.4526C12.8082 33.4264 15.4776 30.9685 18.9756 27.0892C20.293 25.6262 21.7282 23.9622 23.2813 22.0936C23.4408 21.9168 23.5968 21.7435 23.7562 21.5736C28.3843 16.5745 32.326 15.0006 35.5813 16.8553C37.3286 17.8503 38.6841 20.3117 39.9182 21.9653C40.1644 22.2947 40.407 22.6205 40.6497 22.936C41.9879 24.6971 43.2359 26.2433 44.3938 27.5745C45.9816 29.4015 47.3995 30.8263 48.644 31.8456C49.9891 32.2165 52.4644 31.9461 53.761 30.8749C50.8281 33.2496 43.229 20.5197 41.7521 18.0826" fill="url(#paint0_linear_305_588)"/>
<path fill-rule="evenodd" clip-rule="evenodd" d="M63.4219 35.5481H68.2961V26.9679H78.8697V22.5686H68.2961V17.788H80.2946V13.3887H63.4219V35.5481ZM86.3094 35.8636C87.4915 35.8636 88.4934 35.6695 89.315 35.2777C90.1367 34.886 90.8439 34.366 91.4367 33.7108V35.5481H96.0891V25.7026C96.0891 24.562 95.94 23.5359 95.6453 22.6172C95.3507 21.6985 94.8861 20.9219 94.2517 20.291C93.6381 19.6808 92.865 19.2093 91.9255 18.8835C90.986 18.5576 89.8524 18.3912 88.5212 18.3912C87.0859 18.3912 85.8622 18.5195 84.8499 18.7725C83.8376 19.0256 82.8669 19.3515 81.9378 19.7536L83.1408 23.4249C83.9208 23.1302 84.6661 22.9014 85.3733 22.7454C86.0806 22.586 86.8987 22.5097 87.8278 22.5097C89.0308 22.5097 89.9391 22.7732 90.5492 23.3001C91.1628 23.8271 91.4679 24.5967 91.4679 25.6124V25.8967C90.8543 25.6852 90.2268 25.5154 89.5854 25.3906C88.9406 25.2658 88.1883 25.1999 87.3217 25.1999C86.3094 25.1999 85.3837 25.3108 84.5517 25.5327C83.7162 25.7546 83.0021 26.0874 82.3989 26.5311C81.7991 26.9749 81.3276 27.533 80.9914 28.209C80.6516 28.885 80.4852 29.6859 80.4852 30.615V30.6774C80.4852 31.5232 80.6378 32.2651 80.9428 32.9099C81.2479 33.5548 81.6639 34.0956 82.1943 34.5393C82.7213 34.9831 83.3384 35.3159 84.0456 35.5377C84.7528 35.7596 85.5051 35.8706 86.3094 35.8706M87.7654 32.539C86.9854 32.539 86.351 32.3587 85.8656 32.0017C85.3803 31.6446 85.1376 31.1384 85.1376 30.4832V30.4208C85.1376 29.6616 85.4323 29.0827 86.0251 28.6805C86.6144 28.2818 87.4291 28.0808 88.4622 28.0808C89.0516 28.0808 89.6062 28.1397 90.1263 28.2541C90.6428 28.3685 91.1108 28.5245 91.5338 28.7117V29.5645C91.5338 30.452 91.1905 31.1696 90.5041 31.7174C89.8177 32.2651 88.906 32.539 87.7654 32.539ZM98.0547 35.5481H102.867V26.1047C102.867 24.9676 103.123 24.1113 103.643 23.5324C104.16 22.9534 104.874 22.6622 105.779 22.6622C106.683 22.6622 107.38 22.9534 107.869 23.5324C108.354 24.1113 108.597 24.9676 108.597 26.1047V35.5481H113.409V26.1047C113.409 24.9676 113.665 24.1113 114.186 23.5324C114.702 22.9534 115.416 22.6622 116.321 22.6622C117.226 22.6622 117.923 22.9534 118.411 23.5324C118.897 24.1113 119.139 24.9676 119.139 26.1047V35.5481H123.951V24.4996C123.951 22.4542 123.445 20.9011 122.433 19.8472C121.421 18.7933 120.017 18.2629 118.221 18.2629C117.059 18.2629 116.026 18.4917 115.118 18.9493C114.21 19.407 113.388 20.083 112.65 20.9739C112.206 20.1038 111.579 19.4312 110.767 18.9632C109.953 18.4952 108.989 18.2629 107.869 18.2629C107.255 18.2629 106.704 18.3392 106.209 18.4883C105.713 18.6373 105.262 18.8384 104.863 19.0949C104.461 19.3515 104.097 19.6427 103.771 19.972C103.446 20.3014 103.144 20.648 102.87 21.0086V18.5819H98.0582V35.5516L98.0547 35.5481ZM133.984 35.926C135.523 35.926 136.865 35.6452 138.006 35.0871C139.146 34.5289 140.117 33.7524 140.918 32.7609L138.162 30.3237C137.486 30.9374 136.834 31.3776 136.199 31.655C135.565 31.9289 134.847 32.0675 134.047 32.0675C132.972 32.0675 132.067 31.7867 131.339 31.2286C130.611 30.6704 130.129 29.8419 129.9 28.7429H141.708C141.729 28.5106 141.746 28.2888 141.757 28.0773C141.767 27.8658 141.774 27.6648 141.774 27.4741C141.774 26.2711 141.611 25.1167 141.285 24.0073C140.956 22.898 140.45 21.9169 139.767 21.0641C139.08 20.2078 138.22 19.5283 137.187 19.0221C136.154 18.516 134.931 18.2629 133.516 18.2629C132.272 18.2629 131.138 18.4952 130.112 18.9597C129.089 19.4243 128.209 20.0587 127.47 20.8595C126.732 21.6638 126.156 22.5998 125.744 23.678C125.331 24.7527 125.127 25.8932 125.127 27.0962V27.1586C125.127 28.469 125.348 29.6547 125.792 30.719C126.236 31.7833 126.853 32.7089 127.643 33.4889C128.434 34.2689 129.373 34.8721 130.462 35.2951C131.547 35.718 132.726 35.9295 133.991 35.9295M129.838 25.7338C130.029 24.6383 130.434 23.7612 131.055 23.106C131.679 22.4508 132.497 22.1249 133.509 22.1249C134.521 22.1249 135.333 22.4577 135.946 23.1233C136.56 23.7889 136.938 24.6591 137.087 25.7338H129.838Z" fill="url(#paint1_linear_305_588)"/>
<path d="M84.5433 3.55259H79.2461V0.0234375H93.6678V3.55259H88.3706V17.4265H84.5433V3.55259Z" fill="white"/>
<path d="M100.801 17.7255C99.8057 17.7255 98.8801 17.5591 98.0272 17.2298C97.1744 16.8969 96.436 16.4255 95.8155 15.8119C95.1949 15.1982 94.7096 14.4737 94.3594 13.6347C94.0127 12.7992 93.8359 11.8667 93.8359 10.8371V10.7885C93.8359 9.84211 93.9989 8.94769 94.3213 8.1018C94.6437 7.25591 95.0978 6.51749 95.6768 5.89001C96.2557 5.25906 96.9491 4.76332 97.7534 4.39931C98.5577 4.0353 99.4486 3.85156 100.426 3.85156C101.536 3.85156 102.499 4.04917 103.311 4.44784C104.122 4.84652 104.798 5.3804 105.339 6.04948C105.876 6.72203 106.275 7.49165 106.531 8.36181C106.788 9.23196 106.916 10.1402 106.916 11.0832C106.916 11.2323 106.913 11.3917 106.906 11.5547C106.895 11.7211 106.885 11.8944 106.867 12.0782H97.5939C97.7742 12.9414 98.152 13.5897 98.7241 14.0299C99.2961 14.4702 100.003 14.6886 100.849 14.6886C101.48 14.6886 102.042 14.5812 102.541 14.3662C103.037 14.1513 103.553 13.8046 104.084 13.3227L106.247 15.2364C105.616 16.0164 104.853 16.6265 103.959 17.0634C103.064 17.5036 102.011 17.722 100.801 17.722M103.238 9.72077C103.12 8.87488 102.822 8.19194 102.343 7.66846C101.861 7.14498 101.224 6.88497 100.43 6.88497C99.6358 6.88497 98.991 7.14151 98.5022 7.65459C98.0134 8.16767 97.6944 8.85755 97.5454 9.71731H103.238V9.72077Z" fill="white"/>
<path d="M111.791 17.6726C111.16 17.6726 110.567 17.5859 110.013 17.4126C109.458 17.2392 108.972 16.9758 108.556 16.6291C108.14 16.2824 107.815 15.856 107.575 15.3498C107.336 14.8437 107.215 14.2613 107.215 13.5957V13.5471C107.215 12.8191 107.347 12.1882 107.614 11.6578C107.877 11.1273 108.248 10.6871 108.719 10.3404C109.191 9.99372 109.756 9.73025 110.411 9.55691C111.066 9.38357 111.791 9.2969 112.588 9.2969C113.268 9.2969 113.861 9.34544 114.367 9.44597C114.873 9.54651 115.365 9.67824 115.847 9.84465V9.61931C115.847 8.82542 115.608 8.21874 115.126 7.80273C114.644 7.39019 113.933 7.18218 112.987 7.18218C112.256 7.18218 111.614 7.24459 111.059 7.36939C110.505 7.49419 109.919 7.671 109.305 7.90327L108.359 5.01893C109.087 4.70346 109.85 4.44692 110.647 4.24931C111.444 4.05171 112.405 3.95117 113.531 3.95117C114.575 3.95117 115.466 4.07944 116.204 4.33598C116.943 4.59252 117.549 4.96 118.031 5.44187C118.527 5.93762 118.891 6.54777 119.127 7.26885C119.359 7.98994 119.473 8.79769 119.473 9.69211V17.423H115.819V15.9808C115.355 16.4939 114.8 16.9064 114.155 17.2115C113.51 17.5166 112.72 17.6726 111.794 17.6726M112.935 15.0621C113.829 15.0621 114.547 14.8472 115.084 14.4173C115.622 13.9874 115.892 13.4223 115.892 12.7255V12.053C115.559 11.9039 115.192 11.7826 114.786 11.6924C114.381 11.6023 113.944 11.5572 113.479 11.5572C112.668 11.5572 112.03 11.7167 111.566 12.0287C111.101 12.3442 110.869 12.7983 110.869 13.3981V13.4466C110.869 13.9597 111.059 14.3584 111.441 14.6392C111.822 14.92 112.318 15.0621 112.932 15.0621" fill="white"/>
<path d="M121.016 4.10161H124.794V6.00832C125.009 5.72405 125.245 5.45364 125.502 5.19363C125.758 4.93363 126.046 4.70482 126.358 4.50722C126.673 4.30615 127.024 4.14668 127.415 4.03227C127.804 3.9144 128.24 3.85547 128.722 3.85547C129.599 3.85547 130.359 4.03921 130.996 4.40668C131.634 4.77416 132.127 5.3011 132.477 5.98405C133.056 5.28377 133.704 4.75336 134.415 4.39282C135.129 4.03227 135.94 3.85547 136.852 3.85547C138.259 3.85547 139.362 4.27148 140.159 5.10003C140.956 5.92859 141.352 7.14542 141.352 8.75399V17.4313H137.573V10.0159C137.573 9.12493 137.382 8.44891 137.001 7.99477C136.619 7.54062 136.072 7.31182 135.361 7.31182C134.65 7.31182 134.089 7.54062 133.683 7.99477C133.278 8.44891 133.073 9.12493 133.073 10.0159V17.4313H129.294V10.0159C129.294 9.12493 129.104 8.44891 128.722 7.99477C128.341 7.54062 127.793 7.31182 127.082 7.31182C126.372 7.31182 125.81 7.54062 125.405 7.99477C124.999 8.44891 124.794 9.12493 124.794 10.0159V17.4313H121.016V4.10161Z" fill="white"/>
</g>
<defs>
<linearGradient id="paint0_linear_305_588" x1="53.31" y1="-120.64" x2="-0.102433" y2="-120.441" gradientUnits="userSpaceOnUse">
<stop offset="0.28" stop-color="#AC836D"/>
<stop offset="0.7" stop-color="#F0CAB2"/>
</linearGradient>
<linearGradient id="paint1_linear_305_588" x1="141.111" y1="-63.1897" x2="62.5695" y2="-62.5096" gradientUnits="userSpaceOnUse">
<stop offset="0.28" stop-color="#AC836D"/>
<stop offset="0.7" stop-color="#F0CAB2"/>
</linearGradient>
<clipPath id="clip0_305_588">
<rect width="141.769" height="44" fill="white"/>
</clipPath>
</defs>
</svg>
