<svg width="50" height="50" viewBox="0 0 50 50" fill="none" xmlns="http://www.w3.org/2000/svg">
<rect x="0.5" y="0.5" width="49.0025" height="48.8223" rx="11.5" stroke="url(#paint0_linear_295_1552)"/>
<path d="M26.0305 14.6913L15.04 13.0218C14.53 12.9423 14.0095 13.0818 13.6195 13.4118C13.2295 13.7523 13 14.2413 13 14.7513V35.8218C13 36.3723 13.45 36.8223 14.0005 36.8223H17.251V31.5723C17.251 30.6018 18.031 29.8218 19.0015 29.8218H21.502C22.4725 29.8218 23.2525 30.6018 23.2525 31.5723V36.8223H27.502V16.4223C27.5005 15.5613 26.8795 14.8323 26.0305 14.6913ZM18.5005 27.5718H17.0005C16.5865 27.5718 16.2505 27.2358 16.2505 26.8218C16.2505 26.4078 16.5865 26.0718 17.0005 26.0718H18.5005C18.9145 26.0718 19.2505 26.4078 19.2505 26.8218C19.2505 27.2358 18.9145 27.5718 18.5005 27.5718ZM18.5005 24.5718H17.0005C16.5865 24.5718 16.2505 24.2358 16.2505 23.8218C16.2505 23.4078 16.5865 23.0718 17.0005 23.0718H18.5005C18.9145 23.0718 19.2505 23.4078 19.2505 23.8218C19.2505 24.2358 18.9145 24.5718 18.5005 24.5718ZM18.5005 21.5718H17.0005C16.5865 21.5718 16.2505 21.2358 16.2505 20.8218C16.2505 20.4078 16.5865 20.0718 17.0005 20.0718H18.5005C18.9145 20.0718 19.2505 20.4078 19.2505 20.8218C19.2505 21.2358 18.9145 21.5718 18.5005 21.5718ZM18.5005 18.5718H17.0005C16.5865 18.5718 16.2505 18.2358 16.2505 17.8218C16.2505 17.4078 16.5865 17.0718 17.0005 17.0718H18.5005C18.9145 17.0718 19.2505 17.4078 19.2505 17.8218C19.2505 18.2358 18.9145 18.5718 18.5005 18.5718ZM23.5 27.5718H22C21.586 27.5718 21.25 27.2358 21.25 26.8218C21.25 26.4078 21.586 26.0718 22 26.0718H23.5C23.914 26.0718 24.25 26.4078 24.25 26.8218C24.25 27.2358 23.914 27.5718 23.5 27.5718ZM23.5 24.5718H22C21.586 24.5718 21.25 24.2358 21.25 23.8218C21.25 23.4078 21.586 23.0718 22 23.0718H23.5C23.914 23.0718 24.25 23.4078 24.25 23.8218C24.25 24.2358 23.914 24.5718 23.5 24.5718ZM23.5 21.5718H22C21.586 21.5718 21.25 21.2358 21.25 20.8218C21.25 20.4078 21.586 20.0718 22 20.0718H23.5C23.914 20.0718 24.25 20.4078 24.25 20.8218C24.25 21.2358 23.914 21.5718 23.5 21.5718ZM23.5 18.5718H22C21.586 18.5718 21.25 18.2358 21.25 17.8218C21.25 17.4078 21.586 17.0718 22 17.0718H23.5C23.914 17.0718 24.25 17.4078 24.25 17.8218C24.25 18.2358 23.914 18.5718 23.5 18.5718Z" fill="white"/>
<path d="M35.6225 23.6639L28.502 22.1729V36.8219H35.252C36.2165 36.8219 37.0025 36.0374 37.0025 35.0714V25.3739C37.0025 24.5474 36.4385 23.8439 35.6225 23.6639ZM33.2525 33.8219H31.7525C31.3385 33.8219 31.0025 33.4859 31.0025 33.0719C31.0025 32.6579 31.3385 32.3219 31.7525 32.3219H33.2525C33.6665 32.3219 34.0025 32.6579 34.0025 33.0719C34.0025 33.4859 33.6665 33.8219 33.2525 33.8219ZM33.2525 30.8219H31.7525C31.3385 30.8219 31.0025 30.4859 31.0025 30.0719C31.0025 29.6579 31.3385 29.3219 31.7525 29.3219H33.2525C33.6665 29.3219 34.0025 29.6579 34.0025 30.0719C34.0025 30.4859 33.6665 30.8219 33.2525 30.8219ZM33.2525 27.8219H31.7525C31.3385 27.8219 31.0025 27.4859 31.0025 27.0719C31.0025 26.6579 31.3385 26.3219 31.7525 26.3219H33.2525C33.6665 26.3219 34.0025 26.6579 34.0025 27.0719C34.0025 27.4859 33.6665 27.8219 33.2525 27.8219Z" fill="url(#paint1_linear_295_1552)"/>
<defs>
<linearGradient id="paint0_linear_295_1552" x1="49.5793" y1="-169.262" x2="-0.547427" y2="-169.137" gradientUnits="userSpaceOnUse">
<stop offset="0.28" stop-color="#AC836D"/>
<stop offset="0.7" stop-color="#F0CAB2"/>
</linearGradient>
<linearGradient id="paint1_linear_295_1552" x1="36.9305" y1="-27.5945" x2="28.4089" y2="-27.5822" gradientUnits="userSpaceOnUse">
<stop offset="0.28" stop-color="#AC836D"/>
<stop offset="0.7" stop-color="#F0CAB2"/>
</linearGradient>
</defs>
</svg>
