<svg width="50" height="50" viewBox="0 0 50 50" fill="none" xmlns="http://www.w3.org/2000/svg">
<rect x="1.16699" y="0.5" width="47.9565" height="49" rx="11.5" stroke="url(#paint0_linear_295_1615)"/>
<g clip-path="url(#clip0_295_1615)">
<path d="M18.7826 28.4258H16.1987C15.2669 28.4258 14.5088 29.2183 14.5088 30.1925V35.9155C14.5088 36.5138 14.9744 37.0005 15.5466 37.0005H19.4346C20.0068 37.0005 20.4724 36.5138 20.4724 35.9155V30.1926C20.4724 29.2183 19.7144 28.4258 18.7826 28.4258Z" fill="white"/>
<path d="M26.3666 24.9492H23.7827C22.8509 24.9492 22.0928 25.7418 22.0928 26.7159V35.9148C22.0928 36.5131 22.5584 36.9998 23.1306 36.9998H27.0186C27.5909 36.9998 28.0564 36.5131 28.0564 35.9148V26.7159C28.0564 25.7417 27.2984 24.9492 26.3666 24.9492Z" fill="white"/>
<path d="M34.0931 20.9883H31.5092C30.5774 20.9883 29.8193 21.7808 29.8193 22.755V35.9143C29.8193 36.5126 30.2849 36.9993 30.8571 36.9993H34.7451C35.3174 36.9993 35.7829 36.5126 35.7829 35.9143V22.755C35.783 21.7808 35.0249 20.9883 34.0931 20.9883Z" fill="white"/>
<path d="M32.0351 13.6686C31.719 13.2016 31.205 12.9546 30.6599 13.0069L25.7798 13.4789C25.2348 13.5317 24.7729 13.8734 24.5441 14.3931C24.3153 14.9128 24.3674 15.502 24.6835 15.969L24.9559 16.3715L18.8988 20.7473L18.8926 20.7518C18.4628 21.0698 18.1771 21.5437 18.0883 22.0863C17.9995 22.6289 18.118 23.1751 18.4222 23.6244C18.7263 24.0737 19.1797 24.3724 19.6986 24.4653C19.8111 24.4854 19.9237 24.4954 20.0355 24.4954C20.4383 24.4954 20.8307 24.3662 21.1666 24.1188L27.2334 19.7362L27.5146 20.1516C27.8027 20.5771 28.255 20.8203 28.7453 20.8203C28.7931 20.8203 28.8413 20.8179 28.8897 20.8133C29.4347 20.7606 29.8967 20.4188 30.1255 19.899L32.1746 15.2446C32.4034 14.7248 32.3513 14.1357 32.0351 13.6686Z" fill="url(#paint1_linear_295_1615)"/>
</g>
<defs>
<linearGradient id="paint0_linear_295_1615" x1="49.2092" y1="-169.866" x2="0.131002" y2="-169.746" gradientUnits="userSpaceOnUse">
<stop offset="0.28" stop-color="#AC836D"/>
<stop offset="0.7" stop-color="#F0CAB2"/>
</linearGradient>
<linearGradient id="paint1_linear_295_1615" x1="32.1948" y1="-26.0535" x2="17.9035" y2="-26.0094" gradientUnits="userSpaceOnUse">
<stop offset="0.28" stop-color="#AC836D"/>
<stop offset="0.7" stop-color="#F0CAB2"/>
</linearGradient>
<clipPath id="clip0_295_1615">
<rect width="22.9565" height="24" fill="white" transform="translate(13.667 13)"/>
</clipPath>
</defs>
</svg>
