<svg width="50" height="49" viewBox="0 0 50 49" fill="none" xmlns="http://www.w3.org/2000/svg">
<rect x="0.833008" y="0.5" width="48" height="48" rx="11.5" stroke="url(#paint0_linear_295_1598)"/>
<g clip-path="url(#clip0_295_1598)">
<path d="M19.1836 19.2119L17.1909 19.3659C16.6365 19.4087 16.1426 19.6993 15.836 20.1631L13.538 23.6388C13.3054 23.9905 13.2684 24.4307 13.439 24.8163C13.6096 25.2019 13.9602 25.4706 14.3769 25.5352L16.2013 25.8178C16.6281 23.5528 17.6498 21.2934 19.1836 19.2119Z" fill="url(#paint1_linear_295_1598)"/>
<path d="M23.5166 33.1316L23.7992 34.9561C23.8638 35.3728 24.1325 35.7234 24.518 35.8939C24.6785 35.9649 24.8483 35.9999 25.0172 35.9999C25.2545 35.9999 25.4902 35.9308 25.6956 35.795L29.1714 33.497C29.6352 33.1903 29.9258 32.6964 29.9685 32.142L30.1225 30.1494C28.0409 31.6832 25.7816 32.7049 23.5166 33.1316Z" fill="url(#paint2_linear_295_1598)"/>
<path d="M22.8296 31.8665C22.8929 31.8665 22.9566 31.8613 23.0202 31.8507C23.9691 31.6921 24.8837 31.4248 25.7562 31.0749L18.2574 23.5762C17.9076 24.4486 17.6403 25.3632 17.4816 26.3122C17.4191 26.6862 17.5446 27.0673 17.8127 27.3355L21.9969 31.5196C22.2195 31.7422 22.52 31.8665 22.8296 31.8665Z" fill="url(#paint3_linear_295_1598)"/>
<path d="M34.4991 23.1973C36.3341 19.6497 36.4021 15.9007 36.3062 14.1425C36.2733 13.54 35.793 13.0597 35.1905 13.0269C34.9042 13.0113 34.5649 13 34.1825 13C32.2165 13 29.1056 13.2978 26.1357 14.834C23.7754 16.0548 20.6805 18.7429 18.8545 22.2757C18.8761 22.2925 18.8971 22.3104 18.917 22.3302L27.0029 30.4161C27.0227 30.436 27.0405 30.457 27.0574 30.4786C30.5901 28.6525 33.2783 25.5576 34.4991 23.1973ZM26.7061 17.8623C28.0197 16.5488 30.1571 16.5486 31.4707 17.8623C32.1071 18.4986 32.4575 19.3447 32.4575 20.2446C32.4575 21.1445 32.1071 21.9906 31.4707 22.627C30.814 23.2837 29.9511 23.6121 29.0884 23.6122C28.2255 23.6122 27.363 23.2838 26.7061 22.627C26.0697 21.9906 25.7193 21.1445 25.7193 20.2446C25.7193 19.3447 26.0697 18.4986 26.7061 17.8623Z" fill="white"/>
<path d="M27.6595 21.6745C28.4476 22.4627 29.7301 22.4627 30.5183 21.6745C30.9001 21.2927 31.1103 20.7851 31.1103 20.2451C31.1103 19.7051 30.9001 19.1975 30.5183 18.8157C30.1242 18.4216 29.6065 18.2246 29.0889 18.2246C28.5712 18.2246 28.0536 18.4216 27.6595 18.8157C27.2777 19.1975 27.0674 19.7051 27.0674 20.2451C27.0674 20.7851 27.2777 21.2927 27.6595 21.6745Z" fill="#111010"/>
<path d="M14.0205 31.9539C14.193 31.9539 14.3654 31.8881 14.497 31.7565L16.6969 29.5565C16.9601 29.2934 16.9601 28.8668 16.6969 28.6036C16.4338 28.3405 16.0072 28.3405 15.744 28.6036L13.544 30.8036C13.2809 31.0667 13.2809 31.4934 13.544 31.7565C13.6756 31.8881 13.8481 31.9539 14.0205 31.9539Z" fill="url(#paint4_linear_295_1598)"/>
<path d="M18.7129 30.6202C18.4498 30.3571 18.0231 30.3571 17.76 30.6202L13.5304 34.8498C13.2672 35.113 13.2672 35.5396 13.5304 35.8028C13.6619 35.9343 13.8344 36.0001 14.0069 36.0001C14.1793 36.0001 14.3518 35.9343 14.4833 35.8027L18.7129 31.5731C18.9761 31.31 18.9761 30.8834 18.7129 30.6202Z" fill="url(#paint5_linear_295_1598)"/>
<path d="M19.7752 32.6358L17.5753 34.8358C17.3121 35.099 17.3121 35.5256 17.5753 35.7887C17.7069 35.9203 17.8793 35.9861 18.0517 35.9861C18.2241 35.9861 18.3966 35.9203 18.5282 35.7887L20.7281 33.5888C20.9913 33.3256 20.9913 32.899 20.7281 32.6358C20.465 32.3727 20.0384 32.3727 19.7752 32.6358Z" fill="url(#paint6_linear_295_1598)"/>
</g>
<defs>
<linearGradient id="paint0_linear_295_1598" x1="48.9183" y1="-166.469" x2="-0.203446" y2="-166.346" gradientUnits="userSpaceOnUse">
<stop offset="0.28" stop-color="#AC836D"/>
<stop offset="0.7" stop-color="#F0CAB2"/>
</linearGradient>
<linearGradient id="paint1_linear_295_1598" x1="19.134" y1="-3.23025" x2="13.2689" y2="-3.21731" gradientUnits="userSpaceOnUse">
<stop offset="0.28" stop-color="#AC836D"/>
<stop offset="0.7" stop-color="#F0CAB2"/>
</linearGradient>
<linearGradient id="paint2_linear_295_1598" x1="30.0666" y1="10.2733" x2="23.4443" y2="10.2919" gradientUnits="userSpaceOnUse">
<stop offset="0.28" stop-color="#AC836D"/>
<stop offset="0.7" stop-color="#F0CAB2"/>
</linearGradient>
<linearGradient id="paint3_linear_295_1598" x1="25.686" y1="-4.58884" x2="17.3751" y2="-4.56814" gradientUnits="userSpaceOnUse">
<stop offset="0.28" stop-color="#AC836D"/>
<stop offset="0.7" stop-color="#F0CAB2"/>
</linearGradient>
<linearGradient id="paint4_linear_295_1598" x1="16.8643" y1="16.3538" x2="13.3078" y2="16.3626" gradientUnits="userSpaceOnUse">
<stop offset="0.28" stop-color="#AC836D"/>
<stop offset="0.7" stop-color="#F0CAB2"/>
</linearGradient>
<linearGradient id="paint5_linear_295_1598" x1="18.8631" y1="11.4751" x2="13.2719" y2="11.4891" gradientUnits="userSpaceOnUse">
<stop offset="0.28" stop-color="#AC836D"/>
<stop offset="0.7" stop-color="#F0CAB2"/>
</linearGradient>
<linearGradient id="paint6_linear_295_1598" x1="20.8955" y1="20.386" x2="17.3391" y2="20.3949" gradientUnits="userSpaceOnUse">
<stop offset="0.28" stop-color="#AC836D"/>
<stop offset="0.7" stop-color="#F0CAB2"/>
</linearGradient>
<clipPath id="clip0_295_1598">
<rect width="23" height="23" fill="white" transform="translate(13.333 13)"/>
</clipPath>
</defs>
</svg>
